<?xml version="1.0" standalone="no"?>
<!DOCTYPE svg PUBLIC "-//W3C//DTD SVG 20010904//EN"
 "http://www.w3.org/TR/2001/REC-SVG-20010904/DTD/svg10.dtd">
<svg version="1.0" xmlns="http://www.w3.org/2000/svg"
 width="240.000000pt" height="240.000000pt" viewBox="0 0 240.000000 240.000000"
 preserveAspectRatio="xMidYMid meet">

<g transform="translate(0.000000,240.000000) scale(0.100000,-0.100000)"
fill="#000000" stroke="none">
<path d="M1273 1975 c-24 -7 -81 -32 -128 -54 -110 -54 -129 -85 -129 -210 -1
-67 2 -86 16 -94 24 -16 85 6 160 56 70 47 108 96 108 138 0 24 5 29 36 35
129 24 284 -58 346 -184 32 -66 33 -224 1 -294 -58 -125 -176 -196 -363 -216
l-65 -7 -3 -63 -3 -63 33 5 c18 3 60 8 93 12 81 8 200 47 255 82 203 130 279
409 169 625 -30 57 -129 158 -187 190 -99 54 -245 72 -339 42z m-149 -161 c8
-21 -1 -34 -24 -34 -10 0 -21 4 -24 9 -10 16 5 41 24 41 10 0 21 -7 24 -16z"/>
<path d="M732 1528 l3 -23 414 -3 c426 -2 430 -2 431 36 0 9 -92 12 -426 12
l-425 0 3 -22z"/>
<path d="M750 1467 c0 -25 76 -132 121 -171 49 -43 120 -79 192 -97 l47 -11 0
-103 0 -103 28 -6 c15 -4 35 -9 45 -12 15 -5 17 5 17 109 l0 114 65 18 c117
31 220 115 274 222 11 23 21 45 21 48 0 3 -182 5 -405 5 -333 0 -405 -2 -405
-13z"/>
<path d="M995 1114 c-107 -39 -138 -154 -61 -222 43 -37 74 -47 206 -67 107
-16 146 -33 122 -57 -7 -7 -12 -36 -12 -64 l0 -53 29 10 c42 15 90 66 97 104
15 84 -65 152 -208 175 -103 16 -148 29 -148 41 0 6 9 13 20 16 17 5 20 14 20
69 0 71 -1 71 -65 48z"/>
<path d="M1110 716 c0 -91 -4 -86 63 -100 l27 -6 0 89 0 89 -31 6 c-60 12 -59
13 -59 -78z"/>
<path d="M1028 696 c-61 -26 -83 -70 -57 -117 14 -27 46 -38 157 -55 103 -15
140 -31 171 -71 l20 -28 1 30 c0 70 -57 116 -167 136 -94 16 -92 15 -95 68 -3
47 -3 48 -30 37z"/>
<path d="M1110 451 l0 -49 -67 -38 c-147 -82 -160 -74 112 -74 l240 0 -97 56
c-98 55 -98 55 -98 94 0 44 -1 45 -52 54 l-38 7 0 -50z"/>
</g>
</svg>
